<svg width="356" height="234" viewBox="0 0 356 234" fill="none" xmlns="http://www.w3.org/2000/svg">
<path d="M132.893 232.472C167.339 224.469 156.997 175.578 187.266 160.402C226.868 140.545 289.389 163.88 322.417 137.447C355.939 110.618 359.976 65.892 353.231 27.5733C345.936 -13.871 324.581 -56.52 283.607 -83.0383C243.115 -109.245 187.468 -115.907 136.459 -112.722C91.2604 -109.901 58.1988 -81.9136 17.591 -66.4303C-21.6671 -51.4617 -74.1614 -52.1808 -98.2782 -23.2199C-122.436 5.7907 -118.644 46.5779 -104.705 80.4296C-92.3762 110.37 -55.5075 127.705 -27.0725 149.705C-5.34537 166.515 16.8894 180.998 42.2157 194.102C71.5674 209.288 100.034 240.106 132.893 232.472Z" fill="#2AB1AD"/>
</svg>
